<svg xmlns="http://www.w3.org/2000/svg" width="48" height="48" viewBox="0 0 172 172" style="fill:#ffffff"><g fill="none" stroke-linejoin="none" stroke-miterlimit="10" font-family="none" font-weight="none" font-size="none" text-anchor="none" style="mix-blend-mode:normal"><g stroke="#ffffff" stroke-linejoin="round" stroke-width=".994"><path d="M157.23666998 86c0 39.33688402-31.89977602 71.23666998-71.23666998 71.23666998-39.33688402 0-71.23666998-31.89977602-71.23666998-71.23666998 0-39.33688402 31.89977602-71.23666998 71.23666998-71.23666998 39.33688402 0 71.23666998 31.89977602 71.23666998 71.23666998z" fill="#ffffff"/><path d="M85.6901205 129.14449048c-2.543149 1.52089952-5.364121 2.26888452-8.16016348 2.26888452-2.7461735 0-5.46384902-.69811602-7.9606975-2.14422698L44.070098 114.54808754c-5.064927-2.92070002-8.035496-8.16016348-7.93576798-14.02293452.09972802-5.83784152 3.21989402-11.00250648 8.38455898-13.74867998l24.60157952-13.20015102c5.03999748-2.69630452 10.90276852-2.671375 15.66850152.0747985 4.51640798 2.62150602 7.33381152 7.3836805 7.5119065 12.75136002.09972802 3.44428952-2.5965765 6.3365015-6.0373075 6.43622952-3.54402748.09972802-6.3365015-2.5965765-6.43622952-6.0373075-.02492952-1.07210852-.47372052-1.8699625-1.2715745-2.34368302-.99731002-.57345848-2.3187535-.5235895-3.54402748.12466748L50.41015802 97.75405c-1.59569802.87265248-1.795164 2.36862248-1.795164 2.970569-.02492952.598388.12466748 2.11928752 1.69543598 3.02043798l25.49916152 14.72106048c1.5707685.897582 2.94563948.27426448 3.46922898-.02492952.5235895-.32412352 1.7203655-1.24664498 1.67049652-3.0453675l-.192339-4.37392802c-.08904252-1.987503 2.06942848-3.27332152 3.77554002-2.25108198l6.58582652 3.9429495c.7372995.44166402 1.218147 1.239518 1.22170552 2.10148498.021371 6.60719752-1.93763402 11.49047102-6.64993952 14.3292555z" fill="#000100"/><path d="M135.86566998 72.579012c-.09972802 5.83784152-3.24483348 10.97756702-8.4094885 13.74867998L102.85460196 99.527843c-2.521778 1.346373-5.214524 2.0195595-7.885899 2.0195595-2.69630452 0-5.33919148-.69811602-7.71137248-2.04448902-4.49146852-2.5965765-7.25901302-7.33381152-7.43354948-12.70150098-.09972802-3.44428952 2.5965765-6.3365015 6.0373075-6.43622952h.38111948c3.40154752 0 5.855654 2.80315952 6.06223702 6.20114852.06055448.98662452.45591798 1.70612148 1.18964902 2.13354148.94745098.54851902 2.243955.47372052 3.46922898-.17452652l24.60157952-13.1752215c1.62063748-.87265248 1.795164-2.36862248 1.82009352-2.970569 0-.62331752-.149597-2.11928752-1.7203655-3.02043798l-25.474232-14.72106048c-1.5707685-.897582-2.970569-.27426448-3.46922898.02492952-.5235895.32412352-1.7203655 1.22170552-1.67049652 3.0453675.11041352 1.5707685.2030245 2.86015548.277823 3.91801998.14247002 2.030245-2.072987 3.3659325-3.80047948 2.2973825l-6.582268-4.07473402c-.70168448-.43454698-1.16827802-1.1860905-1.19321748-2.008874-.16384102-5.5244035 1.5066555-10.85290948 6.560897-13.8804645 5.01505802-2.99549852 11.027436-3.0453675 16.11729252-.12466748l25.474232 14.72106048c5.064927 2.92070002 8.035496 8.16016348 7.9606975 14.02293452z" fill="#000100"/></g><path d="M.516 171.484V.516h170.968v170.968z" stroke-linejoin="miter"/><g stroke-linejoin="miter"><path d="M157.23666998 86c0 39.33688402-31.89977602 71.23666998-71.23666998 71.23666998-39.33688402 0-71.23666998-31.89977602-71.23666998-71.23666998 0-39.33688402 31.89977602-71.23666998 71.23666998-71.23666998 39.33688402 0 71.23666998 31.89977602 71.23666998 71.23666998z" fill="#ffffff"/><path d="M85.6901205 129.14449048c-2.543149 1.52089952-5.364121 2.26888452-8.16016348 2.26888452-2.7461735 0-5.46384902-.69811602-7.9606975-2.14422698L44.070098 114.54808754c-5.064927-2.92070002-8.035496-8.16016348-7.93576798-14.02293452.09972802-5.83784152 3.21989402-11.00250648 8.38455898-13.74867998l24.60157952-13.20015102c5.03999748-2.69630452 10.90276852-2.671375 15.66850152.0747985 4.51640798 2.62150602 7.33381152 7.3836805 7.5119065 12.75136002.09972802 3.44428952-2.5965765 6.3365015-6.0373075 6.43622952-3.54402748.09972802-6.3365015-2.5965765-6.43622952-6.0373075-.02492952-1.07210852-.47372052-1.8699625-1.2715745-2.34368302-.99731002-.57345848-2.3187535-.5235895-3.54402748.12466748L50.41015802 97.75405c-1.59569802.87265248-1.795164 2.36862248-1.795164 2.970569-.02492952.598388.12466748 2.11928752 1.69543598 3.02043798l25.49916152 14.72106048c1.5707685.897582 2.94563948.27426448 3.46922898-.02492952.5235895-.32412352 1.7203655-1.24664498 1.67049652-3.0453675l-.192339-4.37392802c-.08904252-1.987503 2.06942848-3.27332152 3.77554002-2.25108198l6.58582652 3.9429495c.7372995.44166402 1.218147 1.239518 1.22170552 2.10148498.021371 6.60719752-1.93763402 11.49047102-6.64993952 14.3292555z" fill="#000100"/><path d="M135.86566998 72.579012c-.09972802 5.83784152-3.24483348 10.97756702-8.4094885 13.74867998L102.85460196 99.527843c-2.521778 1.346373-5.214524 2.0195595-7.885899 2.0195595-2.69630452 0-5.33919148-.69811602-7.71137248-2.04448902-4.49146852-2.5965765-7.25901302-7.33381152-7.43354948-12.70150098-.09972802-3.44428952 2.5965765-6.3365015 6.0373075-6.43622952h.38111948c3.40154752 0 5.855654 2.80315952 6.06223702 6.20114852.06055448.98662452.45591798 1.70612148 1.18964902 2.13354148.94745098.54851902 2.243955.47372052 3.46922898-.17452652l24.60157952-13.1752215c1.62063748-.87265248 1.795164-2.36862248 1.82009352-2.970569 0-.62331752-.149597-2.11928752-1.7203655-3.02043798l-25.474232-14.72106048c-1.5707685-.897582-2.970569-.27426448-3.46922898.02492952-.5235895.32412352-1.7203655 1.22170552-1.67049652 3.0453675.11041352 1.5707685.2030245 2.86015548.277823 3.91801998.14247002 2.030245-2.072987 3.3659325-3.80047948 2.2973825l-6.582268-4.07473402c-.70168448-.43454698-1.16827802-1.1860905-1.19321748-2.008874-.16384102-5.5244035 1.5066555-10.85290948 6.560897-13.8804645 5.01505802-2.99549852 11.027436-3.0453675 16.11729252-.12466748l25.474232 14.72106048c5.064927 2.92070002 8.035496 8.16016348 7.9606975 14.02293452z" fill="#000100"/></g></g></svg>