<svg xmlns="http://www.w3.org/2000/svg" viewBox="0 0 172 172" style="fill:#000000"><g fill="none" stroke-miterlimit="10" font-family="none" font-weight="none" font-size="none" text-anchor="none" style="mix-blend-mode:normal"><path d="M0 172V0h172v172z"/><path d="M153.17406 119.54c-3.70875 8.23719-5.49594 11.91906-10.26625 19.18875-6.67844 10.15875-16.09813 22.84375-27.735 22.92438-10.36031.09406-13.03438-6.75906-27.10344-6.63813-14.05563.06719-16.985 6.7725-27.35875 6.665-11.65031-.1075-20.55938-11.52937-27.23781-21.67469-18.67813-28.44719-20.65344-61.79906-9.11063-79.53656 8.17-12.5775 21.08344-19.96812 33.2175-19.96812 12.3625 0 20.12938 6.78594 30.34188 6.78594 9.91687 0 15.95031-6.79938 30.24781-6.79938 10.80375 0 22.22562 5.88563 30.39562 16.04438-26.71375 14.64687-22.37344 52.79594 4.60906 63.00844zm-45.86218-90.4075c5.20031-6.67844 9.15094-16.09812 7.71312-25.6925-8.47906.57781-18.39594 5.99313-24.1875 13.0075-5.25406 6.39625-9.60781 15.88313-7.91469 25.06094 9.25844.29563 18.83937-5.22719 24.38906-12.37594z" fill="#ffffff"/></g></svg>