<svg id="visual" viewBox="0 0 200 300" width="200" height="300" xmlns="http://www.w3.org/2000/svg" xmlns:xlink="http://www.w3.org/1999/xlink" version="1.1"><rect x="0" y="0" width="200" height="300" fill="#f06713"></rect><defs><linearGradient id="grad1_0" x1="0%" y1="100%" x2="100%" y2="0%"><stop offset="30%" stop-color="#f27b1a" stop-opacity="1"></stop><stop offset="70%" stop-color="#f27b1a" stop-opacity="1"></stop></linearGradient></defs><defs><linearGradient id="grad1_1" x1="0%" y1="100%" x2="100%" y2="0%"><stop offset="30%" stop-color="#f27b1a" stop-opacity="1"></stop><stop offset="70%" stop-color="#f06713" stop-opacity="1"></stop></linearGradient></defs><defs><linearGradient id="grad2_0" x1="0%" y1="100%" x2="100%" y2="0%"><stop offset="30%" stop-color="#f27b1a" stop-opacity="1"></stop><stop offset="70%" stop-color="#f27b1a" stop-opacity="1"></stop></linearGradient></defs><defs><linearGradient id="grad2_1" x1="0%" y1="100%" x2="100%" y2="0%"><stop offset="30%" stop-color="#f06713" stop-opacity="1"></stop><stop offset="70%" stop-color="#f27b1a" stop-opacity="1"></stop></linearGradient></defs><g transform="translate(200, 300)"><path d="M-153.2 0C-141.2 -16.4 -129.1 -32.8 -122 -50.5C-114.8 -68.2 -112.4 -87.3 -101.8 -101.8C-91.2 -116.3 -72.3 -126.3 -54 -130.3C-35.6 -134.2 -17.8 -132.1 0 -130L0 0Z" fill="#f17116"></path><path d="M-76.6 0C-70.6 -8.2 -64.6 -16.4 -61 -25.3C-57.4 -34.1 -56.2 -43.7 -50.9 -50.9C-45.6 -58.2 -36.2 -63.2 -27 -65.1C-17.8 -67.1 -8.9 -66.1 0 -65L0 0Z" fill="#f27b1a"></path></g><g transform="translate(0, 0)"><path d="M142 0C141.1 18.9 140.1 37.8 134 55.5C127.8 73.1 116.3 89.5 102.5 102.5C88.7 115.5 72.6 125.2 55.1 133C37.6 140.9 18.8 147.1 0 153.2L0 0Z" fill="#f17116"></path><path d="M71 0C70.5 9.5 70.1 18.9 67 27.7C63.9 36.6 58.2 44.8 51.3 51.3C44.4 57.8 36.3 62.6 27.6 66.5C18.8 70.5 9.4 73.5 0 76.6L0 0Z" fill="#f27b1a"></path></g></svg>