<svg id="visual" viewBox="0 0 200 300" width="200" height="300" xmlns="http://www.w3.org/2000/svg" xmlns:xlink="http://www.w3.org/1999/xlink" version="1.1"><g stroke-width="1" stroke-linejoin="bevel"><path d="M84 141.7L111.7 140.7L84 106Z" fill="#0070f7" stroke="#0070f7"></path><path d="M111.7 140.7L106.7 99.7L84 106Z" fill="#008cf2" stroke="#008cf2"></path><path d="M111.7 140.7L127.7 103L106.7 99.7Z" fill="#0063f6" stroke="#0063f6"></path><path d="M65.7 61.3L60.3 88.3L84 106Z" fill="#0063f6" stroke="#0063f6"></path><path d="M84 106L60.3 88.3L84 141.7Z" fill="#008cf2" stroke="#008cf2"></path><path d="M65.7 61.3L84 106L106.7 99.7Z" fill="#007cf6" stroke="#007cf6"></path><path d="M111.7 140.7L153.3 130.3L127.7 103Z" fill="#0076f6" stroke="#0076f6"></path><path d="M153.3 130.3L140.3 78.7L127.7 103Z" fill="#0087f4" stroke="#0087f4"></path><path d="M127.7 103L140.3 78.7L106.7 99.7Z" fill="#0891f0" stroke="#0891f0"></path><path d="M92.3 32L65.7 61.3L106.7 99.7Z" fill="#0070f7" stroke="#0070f7"></path><path d="M28.7 94L43.7 174L84 141.7Z" fill="#0063f6" stroke="#0063f6"></path><path d="M84 141.7L110.7 197.3L111.7 140.7Z" fill="#006af6" stroke="#006af6"></path><path d="M111.7 140.7L164.7 162.3L153.3 130.3Z" fill="#0076f6" stroke="#0076f6"></path><path d="M43.7 174L58.3 187L84 141.7Z" fill="#0063f6" stroke="#0063f6"></path><path d="M58.3 187L110.7 197.3L84 141.7Z" fill="#0070f7" stroke="#0070f7"></path><path d="M40.7 74.3L28.7 94L60.3 88.3Z" fill="#006af6" stroke="#006af6"></path><path d="M60.3 88.3L28.7 94L84 141.7Z" fill="#008cf2" stroke="#008cf2"></path><path d="M65.7 61.3L40.7 74.3L60.3 88.3Z" fill="#035cf5" stroke="#035cf5"></path><path d="M110.7 197.3L164.7 162.3L111.7 140.7Z" fill="#0076f6" stroke="#0076f6"></path><path d="M153.3 130.3L200 100.3L140.3 78.7Z" fill="#0891f0" stroke="#0891f0"></path><path d="M92.3 32L56 53.3L65.7 61.3Z" fill="#0070f7" stroke="#0070f7"></path><path d="M65.7 61.3L56 53.3L40.7 74.3Z" fill="#008cf2" stroke="#008cf2"></path><path d="M149.3 218.7L178.3 166.7L164.7 162.3Z" fill="#0063f6" stroke="#0063f6"></path><path d="M200 131.7L200 130L153.3 130.3Z" fill="#0070f7" stroke="#0070f7"></path><path d="M140.3 78.7L92.3 32L106.7 99.7Z" fill="#008cf2" stroke="#008cf2"></path><path d="M30 200.3L51 204L58.3 187Z" fill="#0063f6" stroke="#0063f6"></path><path d="M58.3 187L51 204L110.7 197.3Z" fill="#007cf6" stroke="#007cf6"></path><path d="M0 103L0 125.7L28.7 94Z" fill="#0063f6" stroke="#0063f6"></path><path d="M28.7 94L0 125.7L43.7 174Z" fill="#1c96ee" stroke="#1c96ee"></path><path d="M43.7 174L30 200.3L58.3 187Z" fill="#0070f7" stroke="#0070f7"></path><path d="M0 103L28.7 94L0 62.3Z" fill="#1c96ee" stroke="#1c96ee"></path><path d="M197.3 161L186.7 164L200 170Z" fill="#006af6" stroke="#006af6"></path><path d="M178.3 166.7L186.7 164L164.7 162.3Z" fill="#0070f7" stroke="#0070f7"></path><path d="M0 62.3L28.7 94L40.7 74.3Z" fill="#008cf2" stroke="#008cf2"></path><path d="M8.3 187.7L30 200.3L43.7 174Z" fill="#0063f6" stroke="#0063f6"></path><path d="M0 125.7L0 155L43.7 174Z" fill="#1c96ee" stroke="#1c96ee"></path><path d="M200 131.7L153.3 130.3L164.7 162.3Z" fill="#035cf5" stroke="#035cf5"></path><path d="M140.3 78.7L126.7 11.3L92.3 32Z" fill="#0087f4" stroke="#0087f4"></path><path d="M186.7 164L200 131.7L164.7 162.3Z" fill="#0076f6" stroke="#0076f6"></path><path d="M54.3 -0.3L31 43.7L56 53.3Z" fill="#0891f0" stroke="#0891f0"></path><path d="M56 53.3L31 43.7L40.7 74.3Z" fill="#0076f6" stroke="#0076f6"></path><path d="M200 130L200 104.7L153.3 130.3Z" fill="#0891f0" stroke="#0891f0"></path><path d="M200 104.7L200 100.3L153.3 130.3Z" fill="#007cf6" stroke="#007cf6"></path><path d="M200 100.3L200 96.3L140.3 78.7Z" fill="#035cf5" stroke="#035cf5"></path><path d="M0 155L0 167.3L43.7 174Z" fill="#0076f6" stroke="#0076f6"></path><path d="M200 170L186.7 164L178.3 166.7Z" fill="#035cf5" stroke="#035cf5"></path><path d="M186.7 164L197.3 161L200 131.7Z" fill="#007cf6" stroke="#007cf6"></path><path d="M110.7 197.3L149.3 218.7L164.7 162.3Z" fill="#0063f6" stroke="#0063f6"></path><path d="M120.7 239.7L149.3 218.7L110.7 197.3Z" fill="#0076f6" stroke="#0076f6"></path><path d="M0 167.3L8.3 187.7L43.7 174Z" fill="#006af6" stroke="#006af6"></path><path d="M200 201.7L200 170L178.3 166.7Z" fill="#1c96ee" stroke="#1c96ee"></path><path d="M197.3 161L200 170L200 131.7Z" fill="#008cf2" stroke="#008cf2"></path><path d="M0 62.3L-16.7 116L0 103Z" fill="#0063f6" stroke="#0063f6"></path><path d="M0 103L-16.7 116L0 125.7Z" fill="#0063f6" stroke="#0063f6"></path><path d="M0 125.7L-16.7 116L0 155Z" fill="#008cf2" stroke="#008cf2"></path><path d="M0 155L-16.7 116L0 167.3Z" fill="#007cf6" stroke="#007cf6"></path><path d="M31 43.7L0 62.3L40.7 74.3Z" fill="#008cf2" stroke="#008cf2"></path><path d="M196.3 35.3L126.7 11.3L140.3 78.7Z" fill="#0070f7" stroke="#0070f7"></path><path d="M92.3 32L65.3 0L56 53.3Z" fill="#0087f4" stroke="#0087f4"></path><path d="M120.7 240.3L120.7 239.7L75.3 253.3Z" fill="#0087f4" stroke="#0087f4"></path><path d="M75.3 253.3L120.7 239.7L110.7 197.3Z" fill="#0070f7" stroke="#0070f7"></path><path d="M75.3 253.3L110.7 197.3L51 204Z" fill="#0076f6" stroke="#0076f6"></path><path d="M120.7 239.7L120.7 240.3L149.3 218.7Z" fill="#0076f6" stroke="#0076f6"></path><path d="M-36.7 259.7L0 199.7L0 167.3Z" fill="#0076f6" stroke="#0076f6"></path><path d="M0 167.3L0 199.7L8.3 187.7Z" fill="#006af6" stroke="#006af6"></path><path d="M8.3 187.7L0 199.7L30 200.3Z" fill="#0891f0" stroke="#0891f0"></path><path d="M71 253.3L75.3 253.3L51 204Z" fill="#0082f5" stroke="#0082f5"></path><path d="M126.7 11.3L83.3 0L92.3 32Z" fill="#0082f5" stroke="#0082f5"></path><path d="M31 43.7L0 0L0 62.3Z" fill="#035cf5" stroke="#035cf5"></path><path d="M-36.7 259.7L0 206.7L0 199.7Z" fill="#006af6" stroke="#006af6"></path><path d="M0 199.7L0 206.7L30 200.3Z" fill="#0082f5" stroke="#0082f5"></path><path d="M83.3 0L65.3 0L92.3 32Z" fill="#0082f5" stroke="#0082f5"></path><path d="M65.3 0L65 0L56 53.3Z" fill="#035cf5" stroke="#035cf5"></path><path d="M200 239.3L200 201.7L149.3 218.7Z" fill="#0076f6" stroke="#0076f6"></path><path d="M149.3 218.7L200 201.7L178.3 166.7Z" fill="#0070f7" stroke="#0070f7"></path><path d="M71 253.3L51 204L51.3 252.3Z" fill="#0087f4" stroke="#0087f4"></path><path d="M74.3 -16.7L65 0L65.3 0Z" fill="#0082f5" stroke="#0082f5"></path><path d="M74.3 -16.7L54.3 -0.3L65 0Z" fill="#008cf2" stroke="#008cf2"></path><path d="M65 0L54.3 -0.3L56 53.3Z" fill="#0087f4" stroke="#0087f4"></path><path d="M51.3 252.3L51 204L30 200.3Z" fill="#0082f5" stroke="#0082f5"></path><path d="M200 96.3L196.3 35.3L140.3 78.7Z" fill="#0076f6" stroke="#0076f6"></path><path d="M0 206.7L51.3 252.3L30 200.3Z" fill="#008cf2" stroke="#008cf2"></path><path d="M24.7 0L19.7 4.7L31 43.7Z" fill="#0891f0" stroke="#0891f0"></path><path d="M83.3 0L74.3 -16.7L65.3 0Z" fill="#0063f6" stroke="#0063f6"></path><path d="M54.3 -0.3L24.7 0L31 43.7Z" fill="#0070f7" stroke="#0070f7"></path><path d="M126.7 11.3L74.3 -16.7L83.3 0Z" fill="#0087f4" stroke="#0087f4"></path><path d="M199.7 0L74.3 -16.7L126.7 11.3Z" fill="#1c96ee" stroke="#1c96ee"></path><path d="M74.3 -16.7L24.7 0L54.3 -0.3Z" fill="#0891f0" stroke="#0891f0"></path><path d="M200 96.3L212.7 33.7L196.3 35.3Z" fill="#035cf5" stroke="#035cf5"></path><path d="M196.3 35.3L199.7 0L126.7 11.3Z" fill="#0087f4" stroke="#0087f4"></path><path d="M200 100.3L212.7 33.7L200 96.3Z" fill="#1c96ee" stroke="#1c96ee"></path><path d="M200 104.7L212.7 33.7L200 100.3Z" fill="#0087f4" stroke="#0087f4"></path><path d="M200 130L212.7 33.7L200 104.7Z" fill="#1c96ee" stroke="#1c96ee"></path><path d="M200 131.7L212.7 33.7L200 130Z" fill="#006af6" stroke="#006af6"></path><path d="M200 170L212.7 33.7L200 131.7Z" fill="#0087f4" stroke="#0087f4"></path><path d="M200 201.7L212.7 33.7L200 170Z" fill="#0087f4" stroke="#0087f4"></path><path d="M157.7 300L200 239.3L149.3 218.7Z" fill="#006af6" stroke="#006af6"></path><path d="M200 201.7L200 239.3L212.7 33.7Z" fill="#008cf2" stroke="#008cf2"></path><path d="M157.7 300L149.3 218.7L120.7 240.3Z" fill="#0087f4" stroke="#0087f4"></path><path d="M0 -0.7L19.7 4.7L24.7 0Z" fill="#008cf2" stroke="#008cf2"></path><path d="M0 -0.7L0 0L19.7 4.7Z" fill="#0891f0" stroke="#0891f0"></path><path d="M19.7 4.7L0 0L31 43.7Z" fill="#006af6" stroke="#006af6"></path><path d="M0 62.3L0 0L-16.7 116Z" fill="#008cf2" stroke="#008cf2"></path><path d="M74.3 -16.7L0 -0.7L24.7 0Z" fill="#007cf6" stroke="#007cf6"></path><path d="M0 0L0 -0.7L-16.7 116Z" fill="#0076f6" stroke="#0076f6"></path><path d="M200 0L199.7 0L196.3 35.3Z" fill="#007cf6" stroke="#007cf6"></path><path d="M212.7 33.7L200 0L196.3 35.3Z" fill="#006af6" stroke="#006af6"></path><path d="M199.7 0L200 0L74.3 -16.7Z" fill="#007cf6" stroke="#007cf6"></path><path d="M71 253.3L66.7 294.7L75.3 253.3Z" fill="#0070f7" stroke="#0070f7"></path><path d="M75.3 253.3L93.7 300L120.7 240.3Z" fill="#035cf5" stroke="#035cf5"></path><path d="M51.3 252.3L66.7 294.7L71 253.3Z" fill="#1c96ee" stroke="#1c96ee"></path><path d="M65 300L66.7 294.7L0 300Z" fill="#0082f5" stroke="#0082f5"></path><path d="M66.7 294.7L93.7 300L75.3 253.3Z" fill="#0082f5" stroke="#0082f5"></path><path d="M66.7 294.7L74.3 300L93.7 300Z" fill="#0070f7" stroke="#0070f7"></path><path d="M93.7 300L129.3 300L120.7 240.3Z" fill="#0070f7" stroke="#0070f7"></path><path d="M0 300L66.7 294.7L51.3 252.3Z" fill="#0063f6" stroke="#0063f6"></path><path d="M66.7 294.7L65 300L74.3 300Z" fill="#007cf6" stroke="#007cf6"></path><path d="M74.3 300L138 302.7L93.7 300Z" fill="#0087f4" stroke="#0087f4"></path><path d="M93.7 300L138 302.7L129.3 300Z" fill="#035cf5" stroke="#035cf5"></path><path d="M129.3 300L157.7 300L120.7 240.3Z" fill="#0082f5" stroke="#0082f5"></path><path d="M65 300L138 302.7L74.3 300Z" fill="#0063f6" stroke="#0063f6"></path><path d="M138 302.7L157.7 300L129.3 300Z" fill="#0076f6" stroke="#0076f6"></path><path d="M0 206.7L-36.7 259.7L51.3 252.3Z" fill="#0891f0" stroke="#0891f0"></path><path d="M-16.7 116L-36.7 259.7L0 167.3Z" fill="#006af6" stroke="#006af6"></path><path d="M-36.7 259.7L0 300L51.3 252.3Z" fill="#007cf6" stroke="#007cf6"></path><path d="M65 300L0 300L138 302.7Z" fill="#0082f5" stroke="#0082f5"></path><path d="M157.7 300L200 300L200 239.3Z" fill="#0063f6" stroke="#0063f6"></path><path d="M200 239.3L200 300L212.7 33.7Z" fill="#0076f6" stroke="#0076f6"></path><path d="M138 302.7L200 300L157.7 300Z" fill="#007cf6" stroke="#007cf6"></path></g></svg>