<svg id="visual" viewBox="0 0 200 300" width="200" height="300" xmlns="http://www.w3.org/2000/svg" xmlns:xlink="http://www.w3.org/1999/xlink" version="1.1"><g stroke-width="1" stroke-linejoin="bevel"><path d="M109.7 122.7L106.7 115.7L99.3 144.3Z" fill="#f27e24" stroke="#f27e24"></path><path d="M106.7 115.7L67 129L99.3 144.3Z" fill="#e26336" stroke="#e26336"></path><path d="M67 129L82.7 151L99.3 144.3Z" fill="#e26336" stroke="#e26336"></path><path d="M106.7 115.7L66.3 108.7L67 129Z" fill="#f99407" stroke="#f99407"></path><path d="M82.7 151L109.7 150.7L99.3 144.3Z" fill="#e26336" stroke="#e26336"></path><path d="M99.3 144.3L109.7 150.7L109.7 122.7Z" fill="#d9573c" stroke="#d9573c"></path><path d="M66.3 108.7L59 133.7L67 129Z" fill="#eb702e" stroke="#eb702e"></path><path d="M67 129L59 133.7L82.7 151Z" fill="#de5d39" stroke="#de5d39"></path><path d="M109.7 122.7L117.7 91.3L106.7 115.7Z" fill="#e26336" stroke="#e26336"></path><path d="M106.7 115.7L117.7 91.3L66.3 108.7Z" fill="#de5d39" stroke="#de5d39"></path><path d="M154 122.7L117.7 91.3L109.7 122.7Z" fill="#d9573c" stroke="#d9573c"></path><path d="M117.7 91.3L58.3 74.3L66.3 108.7Z" fill="#d3523f" stroke="#d3523f"></path><path d="M66.3 108.7L20.7 122L59 133.7Z" fill="#f27e24" stroke="#f27e24"></path><path d="M109.7 150.7L154 122.7L109.7 122.7Z" fill="#d3523f" stroke="#d3523f"></path><path d="M79 192.3L109.3 188.7L82.7 151Z" fill="#d9573c" stroke="#d9573c"></path><path d="M82.7 151L109.3 188.7L109.7 150.7Z" fill="#f78c14" stroke="#f78c14"></path><path d="M109.7 150.7L189.7 182.3L154 122.7Z" fill="#d9573c" stroke="#d9573c"></path><path d="M39.3 177.3L79 192.3L82.7 151Z" fill="#f78c14" stroke="#f78c14"></path><path d="M58.3 74.3L20.7 122L66.3 108.7Z" fill="#e76a32" stroke="#e76a32"></path><path d="M59 133.7L39.3 177.3L82.7 151Z" fill="#f78c14" stroke="#f78c14"></path><path d="M20.7 122L39.3 177.3L59 133.7Z" fill="#e76a32" stroke="#e76a32"></path><path d="M154 122.7L152.3 80.7L117.7 91.3Z" fill="#de5d39" stroke="#de5d39"></path><path d="M117.7 91.3L56.3 47L58.3 74.3Z" fill="#f5851d" stroke="#f5851d"></path><path d="M97.7 0L56.3 47L117.7 91.3Z" fill="#f27e24" stroke="#f27e24"></path><path d="M58.3 74.3L0 96.7L20.7 122Z" fill="#de5d39" stroke="#de5d39"></path><path d="M0 96.7L0 127L20.7 122Z" fill="#de5d39" stroke="#de5d39"></path><path d="M20.7 122L0 139.3L39.3 177.3Z" fill="#f5851d" stroke="#f5851d"></path><path d="M95 218.3L113.7 214.3L109.3 188.7Z" fill="#f27e24" stroke="#f27e24"></path><path d="M205.3 140L200 120.7L154 122.7Z" fill="#f27e24" stroke="#f27e24"></path><path d="M95 218.3L109.3 188.7L79 192.3Z" fill="#f27e24" stroke="#f27e24"></path><path d="M0 127L0 139.3L20.7 122Z" fill="#de5d39" stroke="#de5d39"></path><path d="M53.3 220.7L95 218.3L79 192.3Z" fill="#d9573c" stroke="#d9573c"></path><path d="M0 83.7L0 96.7L58.3 74.3Z" fill="#e26336" stroke="#e26336"></path><path d="M56.3 47L20.3 57.3L58.3 74.3Z" fill="#de5d39" stroke="#de5d39"></path><path d="M20.3 57.3L0 83.7L58.3 74.3Z" fill="#e76a32" stroke="#e76a32"></path><path d="M47 227L53.3 220.7L39.3 177.3Z" fill="#ef7729" stroke="#ef7729"></path><path d="M39.3 177.3L53.3 220.7L79 192.3Z" fill="#f99407" stroke="#f99407"></path><path d="M-18.7 155.7L-2.7 173L0 139.3Z" fill="#f27e24" stroke="#f27e24"></path><path d="M0 139.3L-2.7 173L39.3 177.3Z" fill="#f27e24" stroke="#f27e24"></path><path d="M-18.7 155.7L0 139.3L0 127Z" fill="#e26336" stroke="#e26336"></path><path d="M-18.7 155.7L0 127L0 96.7Z" fill="#f5851d" stroke="#f5851d"></path><path d="M0 222.3L47 227L39.3 177.3Z" fill="#de5d39" stroke="#de5d39"></path><path d="M53.3 220.7L91.3 247.3L95 218.3Z" fill="#e26336" stroke="#e26336"></path><path d="M189.7 182.3L109.7 150.7L109.3 188.7Z" fill="#e76a32" stroke="#e76a32"></path><path d="M154 122.7L200 100.3L152.3 80.7Z" fill="#f5851d" stroke="#f5851d"></path><path d="M201.7 108L200 100.3L154 122.7Z" fill="#d9573c" stroke="#d9573c"></path><path d="M0 83.7L-18.7 155.7L0 96.7Z" fill="#e26336" stroke="#e26336"></path><path d="M-2.7 173L0 222.3L39.3 177.3Z" fill="#de5d39" stroke="#de5d39"></path><path d="M200 120.7L201.7 108L154 122.7Z" fill="#ef7729" stroke="#ef7729"></path><path d="M113.7 214.3L189.7 182.3L109.3 188.7Z" fill="#eb702e" stroke="#eb702e"></path><path d="M200 171L205.3 140L154 122.7Z" fill="#d9573c" stroke="#d9573c"></path><path d="M200 120.7L205.3 140L201.7 108Z" fill="#f27e24" stroke="#f27e24"></path><path d="M200 100.3L200 84L152.3 80.7Z" fill="#f78c14" stroke="#f78c14"></path><path d="M152.3 80.7L147 19.3L117.7 91.3Z" fill="#e76a32" stroke="#e76a32"></path><path d="M201.7 108L200 84L200 100.3Z" fill="#d9573c" stroke="#d9573c"></path><path d="M200 49.7L200 84L201.7 108Z" fill="#f78c14" stroke="#f78c14"></path><path d="M189.7 182.3L200 171L154 122.7Z" fill="#d3523f" stroke="#d3523f"></path><path d="M95 218.3L91.3 247.3L113.7 214.3Z" fill="#f27e24" stroke="#f27e24"></path><path d="M113.7 214.3L192.3 193.7L189.7 182.3Z" fill="#e76a32" stroke="#e76a32"></path><path d="M47 227L91.3 247.3L53.3 220.7Z" fill="#de5d39" stroke="#de5d39"></path><path d="M200 49.7L147 19.3L152.3 80.7Z" fill="#e26336" stroke="#e26336"></path><path d="M56.3 47L0 0L20.3 57.3Z" fill="#de5d39" stroke="#de5d39"></path><path d="M195.3 196L192.3 193.7L149.7 270.7Z" fill="#de5d39" stroke="#de5d39"></path><path d="M189.7 182.3L200 193.3L200 171Z" fill="#f78c14" stroke="#f78c14"></path><path d="M149.7 270.7L192.3 193.7L113.7 214.3Z" fill="#de5d39" stroke="#de5d39"></path><path d="M192.3 193.7L200 193.3L189.7 182.3Z" fill="#f78c14" stroke="#f78c14"></path><path d="M130.7 5.7L97.7 0L117.7 91.3Z" fill="#f78c14" stroke="#f78c14"></path><path d="M147 19.3L130.7 5.7L117.7 91.3Z" fill="#e26336" stroke="#e26336"></path><path d="M195.3 196L200 193.3L192.3 193.7Z" fill="#e76a32" stroke="#e76a32"></path><path d="M200 171L220.7 219L205.3 140Z" fill="#f99407" stroke="#f99407"></path><path d="M130.7 5.7L119 0L97.7 0Z" fill="#ef7729" stroke="#ef7729"></path><path d="M-18.7 155.7L0 222.3L-2.7 173Z" fill="#f99407" stroke="#f99407"></path><path d="M64.3 300L81.3 300L91.3 247.3Z" fill="#ef7729" stroke="#ef7729"></path><path d="M200 84L200 49.7L152.3 80.7Z" fill="#e76a32" stroke="#e76a32"></path><path d="M147 19.3L183.3 -35.7L130.7 5.7Z" fill="#e26336" stroke="#e26336"></path><path d="M204.7 0L200 49.7L201.7 108Z" fill="#ef7729" stroke="#ef7729"></path><path d="M-18.7 155.7L0 247L0 222.3Z" fill="#f27e24" stroke="#f27e24"></path><path d="M0 222.3L0 247L47 227Z" fill="#f99407" stroke="#f99407"></path><path d="M81.3 300L117 277.7L91.3 247.3Z" fill="#ef7729" stroke="#ef7729"></path><path d="M91.3 247.3L117 277.7L113.7 214.3Z" fill="#e26336" stroke="#e26336"></path><path d="M195.3 196L220.7 219L200 193.3Z" fill="#d3523f" stroke="#d3523f"></path><path d="M117 277.7L149.7 270.7L113.7 214.3Z" fill="#f99407" stroke="#f99407"></path><path d="M97.7 0L0 0L56.3 47Z" fill="#de5d39" stroke="#de5d39"></path><path d="M20.3 57.3L-21.7 0L0 83.7Z" fill="#d9573c" stroke="#d9573c"></path><path d="M0 83.7L-21.7 0L-18.7 155.7Z" fill="#d9573c" stroke="#d9573c"></path><path d="M200 262.7L220.7 219L195.3 196Z" fill="#f78c14" stroke="#f78c14"></path><path d="M200 193.3L220.7 219L200 171Z" fill="#ef7729" stroke="#ef7729"></path><path d="M205.3 140L204.7 0L201.7 108Z" fill="#d3523f" stroke="#d3523f"></path><path d="M200 0L196.3 0L200 49.7Z" fill="#e76a32" stroke="#e76a32"></path><path d="M200 49.7L196.3 0L147 19.3Z" fill="#d3523f" stroke="#d3523f"></path><path d="M183.3 -35.7L96.7 -39.7L119 0Z" fill="#ef7729" stroke="#ef7729"></path><path d="M97.7 0L0 -11.7L0 0Z" fill="#f78c14" stroke="#f78c14"></path><path d="M0 0L-21.7 0L20.3 57.3Z" fill="#f99407" stroke="#f99407"></path><path d="M7.7 -39.7L0 -11.7L97.7 0Z" fill="#f5851d" stroke="#f5851d"></path><path d="M96.7 -39.7L97.7 0L119 0Z" fill="#ef7729" stroke="#ef7729"></path><path d="M183.3 -35.7L119 0L130.7 5.7Z" fill="#f78c14" stroke="#f78c14"></path><path d="M204.7 0L200 0L200 49.7Z" fill="#de5d39" stroke="#de5d39"></path><path d="M196.3 0L183.3 -35.7L147 19.3Z" fill="#eb702e" stroke="#eb702e"></path><path d="M0 -11.7L-21.7 0L0 0Z" fill="#d9573c" stroke="#d9573c"></path><path d="M220.7 219L204.7 0L205.3 140Z" fill="#f5851d" stroke="#f5851d"></path><path d="M200 -28.7L183.3 -35.7L196.3 0Z" fill="#f78c14" stroke="#f78c14"></path><path d="M117 277.7L119.7 300L149.7 270.7Z" fill="#e76a32" stroke="#e76a32"></path><path d="M64.3 300L91.3 247.3L47 227Z" fill="#ef7729" stroke="#ef7729"></path><path d="M149.7 270.7L200 262.7L195.3 196Z" fill="#f99407" stroke="#f99407"></path><path d="M189.7 300L200 262.7L149.7 270.7Z" fill="#e76a32" stroke="#e76a32"></path><path d="M-5.3 285.3L0 276.7L0 247Z" fill="#d3523f" stroke="#d3523f"></path><path d="M0 247L0 276.7L47 227Z" fill="#ef7729" stroke="#ef7729"></path><path d="M0 276.7L64.3 300L47 227Z" fill="#ef7729" stroke="#ef7729"></path><path d="M81.3 300L119.7 300L117 277.7Z" fill="#de5d39" stroke="#de5d39"></path><path d="M119.7 300L154 300L149.7 270.7Z" fill="#ef7729" stroke="#ef7729"></path><path d="M-18.7 155.7L-5.3 285.3L0 247Z" fill="#e76a32" stroke="#e76a32"></path><path d="M0 276.7L0 300L64.3 300Z" fill="#e26336" stroke="#e26336"></path><path d="M96.7 -39.7L7.7 -39.7L97.7 0Z" fill="#e76a32" stroke="#e76a32"></path><path d="M0 -11.7L7.7 -39.7L-21.7 0Z" fill="#f5851d" stroke="#f5851d"></path><path d="M200 -28.7L196.3 0L200 0Z" fill="#f99407" stroke="#f99407"></path><path d="M204.7 0L200 -28.7L200 0Z" fill="#d3523f" stroke="#d3523f"></path><path d="M-5.3 285.3L0 300L0 276.7Z" fill="#f5851d" stroke="#f5851d"></path><path d="M-18.7 155.7L-4.3 299.7L-5.3 285.3Z" fill="#e26336" stroke="#e26336"></path><path d="M-5.3 285.3L-4.3 299.7L0 300Z" fill="#de5d39" stroke="#de5d39"></path><path d="M154 300L189.7 300L149.7 270.7Z" fill="#de5d39" stroke="#de5d39"></path><path d="M200 262.7L200 300L220.7 219Z" fill="#eb702e" stroke="#eb702e"></path><path d="M189.7 300L200 300L200 262.7Z" fill="#f78c14" stroke="#f78c14"></path></g></svg>