<svg id="visual" viewBox="0 0 200 300" width="200" height="300" xmlns="http://www.w3.org/2000/svg" xmlns:xlink="http://www.w3.org/1999/xlink" version="1.1"><rect x="0" y="0" width="200" height="300" fill="#303235"></rect><defs><linearGradient id="grad1_0" x1="0%" y1="100%" x2="100%" y2="0%"><stop offset="30%" stop-color="#45484b" stop-opacity="1"></stop><stop offset="70%" stop-color="#45484b" stop-opacity="1"></stop></linearGradient></defs><defs><linearGradient id="grad1_1" x1="0%" y1="100%" x2="100%" y2="0%"><stop offset="30%" stop-color="#45484b" stop-opacity="1"></stop><stop offset="70%" stop-color="#303235" stop-opacity="1"></stop></linearGradient></defs><defs><linearGradient id="grad2_0" x1="0%" y1="100%" x2="100%" y2="0%"><stop offset="30%" stop-color="#45484b" stop-opacity="1"></stop><stop offset="70%" stop-color="#45484b" stop-opacity="1"></stop></linearGradient></defs><defs><linearGradient id="grad2_1" x1="0%" y1="100%" x2="100%" y2="0%"><stop offset="30%" stop-color="#303235" stop-opacity="1"></stop><stop offset="70%" stop-color="#45484b" stop-opacity="1"></stop></linearGradient></defs><g transform="translate(200, 300)"><path d="M-114 0C-124.2 -9.6 -134.4 -19.3 -131.4 -26.1C-128.5 -33 -112.4 -37.2 -106.2 -44C-100.1 -50.9 -104 -60.4 -103.1 -68.9C-102.2 -77.4 -96.7 -84.7 -90.5 -90.5C-84.4 -96.3 -77.6 -100.4 -71.1 -106.4C-64.6 -112.4 -58.3 -120.3 -50.1 -121C-42 -121.8 -31.9 -115.5 -23.2 -116.7C-14.5 -117.9 -7.3 -126.6 0 -135.2L0 0Z" fill="#3a3d40"></path><path d="M-57 0C-62.1 -4.8 -67.2 -9.6 -65.7 -13.1C-64.2 -16.5 -56.2 -18.6 -53.1 -22C-50.1 -25.4 -52 -30.2 -51.6 -34.4C-51.1 -38.7 -48.3 -42.4 -45.3 -45.3C-42.2 -48.1 -38.8 -50.2 -35.6 -53.2C-32.3 -56.2 -29.2 -60.1 -25.1 -60.5C-21 -60.9 -15.9 -57.8 -11.6 -58.4C-7.3 -59 -3.6 -63.3 0 -67.6L0 0Z" fill="#45484b"></path></g><g transform="translate(0, 0)"><path d="M121 0C129 9.8 137 19.5 132.6 26.4C128.3 33.2 111.6 37.1 105.3 43.6C99 50.2 103.1 59.3 103.9 69.4C104.7 79.6 102.2 90.6 94 94C85.9 97.4 72.1 93.2 63.9 95.6C55.7 98.1 53.1 107.2 47.8 115.5C42.6 123.8 34.6 131.2 26.1 131.4C17.7 131.7 8.9 124.8 0 118L0 0Z" fill="#3a3d40"></path><path d="M60.5 0C64.5 4.9 68.5 9.8 66.3 13.2C64.1 16.6 55.8 18.5 52.7 21.8C49.5 25.1 51.6 29.7 52 34.7C52.4 39.8 51.1 45.3 47 47C42.9 48.7 36 46.6 31.9 47.8C27.8 49 26.6 53.6 23.9 57.7C21.3 61.9 17.3 65.6 13.1 65.7C8.9 65.8 4.4 62.4 0 59L0 0Z" fill="#45484b"></path></g></svg>