<svg xmlns="http://www.w3.org/2000/svg" version="1.1" xmlns:xlink="http://www.w3.org/1999/xlink" xmlns:svgjs="http://svgjs.com/svgjs" width="400" height="560" preserveAspectRatio="none" viewBox="0 0 400 560"><g mask="url(&quot;#SvgjsMask1193&quot;)" fill="none"><rect width="400" height="560" x="0" y="0" fill="rgba(245, 79, 0, 1)"></rect><path d="M0,269.075C49.241,261.756,71.303,202.998,113.872,177.189C158.172,150.33,233.43,163.515,253.133,115.602C273.08,67.096,219.542,19.493,198.473,-28.536C183.256,-63.226,164.169,-93.494,146.673,-127.093C122.813,-172.914,124.532,-241.918,76.921,-261.968C30.61,-281.471,-19.872,-240.823,-63.279,-215.508C-99.07,-194.635,-126.447,-164.02,-149.759,-129.767C-170.885,-98.726,-179.423,-63.137,-191.237,-27.496C-205.802,16.445,-237.115,58.532,-227.16,103.741C-216.747,151.03,-177.074,186.118,-137.924,214.613C-97.133,244.302,-49.903,276.492,0,269.075" fill="#e94b00"></path><path d="M400 710.107C431.383 716.037 469.75 726.963 493.781 705.9259999999999 518.443 684.336 501.76300000000003 642.365 512.684 611.461 522.192 584.556 553.671 566.514 553.129 537.983 552.58 509.062 526.806 488.243 509.897 464.774 491.222 438.854 478.221 406.11199999999997 448.931 393.35699999999997 418.63 380.16200000000003 383.383 386.116 351.827 395.938 320.608 405.655 287.106 419.904 271.44 448.602 256.273 476.38599999999997 270.411 510.04 272.291 541.638 273.76800000000003 566.475 271.877 591.181 281.29200000000003 614.212 290.977 637.904 306.619 658.239 326.529 674.323 348.158 691.795 372.679 704.9449999999999 400 710.107" fill="#ff5402"></path></g><defs><mask id="SvgjsMask1193"><rect width="400" height="560" fill="#ffffff"></rect></mask></defs></svg>