<svg xmlns="http://www.w3.org/2000/svg" width="50" height="50" viewBox="0 0 172 172" style="fill:#000000">
  <g fill="none" fill-rule="none" stroke-miterlimit="10" font-family="none" font-weight="none" font-size="none" text-anchor="none" style="mix-blend-mode:normal">
    <path d="M0 172V0h172v172z" fill-rule="nonzero"/>
    <path d="M22.0375 57.79469C10.84406 70.93657 0 86.80625 0 99.42407c0 7.28312 6.1275 17.5225 21.09688 17.5225 8.08937 0 16.125-3.25188 22.41375-5.76469 10.60219-4.24625 127.76375-55.12063 127.76375-55.12063 1.12875-.56437.92719-1.27656-.49719-.92719-.56437.14781-127.54875 34.56125-127.54875 34.56125-2.44562.68531-4.945 1.06156-7.37719 1.06156-10.97844 0-18.3825-5.2675-18.3825-16.78344 0-4.46125 1.3975-9.84969 4.56875-16.17875z" fill="#ffffff" fill-rule="evenodd"/>
  </g>
</svg>
