<svg id="visual" viewBox="0 0 200 300" width="200" height="300" xmlns="http://www.w3.org/2000/svg" xmlns:xlink="http://www.w3.org/1999/xlink" version="1.1"><rect x="0" y="0" width="200" height="300" fill="#eb5c3b"></rect><defs><linearGradient id="grad1_0" x1="0%" y1="100%" x2="100%" y2="0%"><stop offset="30%" stop-color="#fa7e62" stop-opacity="1"></stop><stop offset="70%" stop-color="#fa7e62" stop-opacity="1"></stop></linearGradient></defs><defs><linearGradient id="grad1_1" x1="0%" y1="100%" x2="100%" y2="0%"><stop offset="30%" stop-color="#fa7e62" stop-opacity="1"></stop><stop offset="70%" stop-color="#eb5c3b" stop-opacity="1"></stop></linearGradient></defs><defs><linearGradient id="grad2_0" x1="0%" y1="100%" x2="100%" y2="0%"><stop offset="30%" stop-color="#fa7e62" stop-opacity="1"></stop><stop offset="70%" stop-color="#fa7e62" stop-opacity="1"></stop></linearGradient></defs><defs><linearGradient id="grad2_1" x1="0%" y1="100%" x2="100%" y2="0%"><stop offset="30%" stop-color="#eb5c3b" stop-opacity="1"></stop><stop offset="70%" stop-color="#fa7e62" stop-opacity="1"></stop></linearGradient></defs><g transform="translate(200, 300)"><path d="M-129 0C-132.2 -12.5 -135.4 -25 -130.6 -35C-125.8 -44.9 -112.9 -52.3 -103.9 -60C-95 -67.7 -90 -75.6 -84.1 -84.1C-78.3 -92.7 -71.5 -101.8 -63 -109.1C-54.5 -116.4 -44.4 -121.9 -33.6 -125.6C-22.9 -129.2 -11.4 -131.1 0 -133L0 0Z" fill="#f36d4f"></path><path d="M-64.5 0C-66.1 -6.3 -67.7 -12.5 -65.3 -17.5C-62.9 -22.5 -56.4 -26.2 -52 -30C-47.5 -33.8 -45 -37.8 -42.1 -42.1C-39.1 -46.3 -35.7 -50.9 -31.5 -54.6C-27.3 -58.2 -22.2 -60.9 -16.8 -62.8C-11.4 -64.6 -5.7 -65.6 0 -66.5L0 0Z" fill="#fa7e62"></path></g><g transform="translate(0, 0)"><path d="M115 0C123.9 12.4 132.8 24.7 130.6 35C128.4 45.3 115.1 53.5 105.7 61C96.3 68.5 90.8 75.4 85.6 85.6C80.3 95.7 75.3 109.1 66 114.3C56.7 119.5 43 116.5 31.3 116.9C19.6 117.3 9.8 121.1 0 125L0 0Z" fill="#f36d4f"></path><path d="M57.5 0C62 6.2 66.4 12.4 65.3 17.5C64.2 22.6 57.5 26.7 52.8 30.5C48.1 34.3 45.4 37.7 42.8 42.8C40.2 47.9 37.7 54.6 33 57.2C28.3 59.8 21.5 58.2 15.7 58.4C9.8 58.6 4.9 60.6 0 62.5L0 0Z" fill="#fa7e62"></path></g></svg>